<?xml version="1.0" encoding="utf-8"?>
<!-- Generator: Adobe Illustrator 16.0.0, SVG Export Plug-In . SVG Version: 6.00 Build 0)  -->
<!DOCTYPE svg PUBLIC "-//W3C//DTD SVG 1.1//EN" "http://www.w3.org/Graphics/SVG/1.1/DTD/svg11.dtd">
<svg version="1.1" id="Layer_1" xmlns="http://www.w3.org/2000/svg" xmlns:xlink="http://www.w3.org/1999/xlink" x="0px" y="0px"
	 width="252.932px" height="69.26px" viewBox="0 0 252.932 69.26" enable-background="new 0 0 252.932 69.26" xml:space="preserve">
<g>
	<g>
		<path stroke="#000000" stroke-width="4" stroke-miterlimit="10" d="M27.454,24.244c-0.396,0.396-1.075,0.594-2.036,0.594
			c-0.17,0-1.697-0.819-4.582-2.46c-1.358-0.792-2.999-1.188-4.921-1.188c-1.923,0-3.451,0.369-4.582,1.103
			c-1.188,0.905-1.782,2.065-1.782,3.479c0,1.754,3.055,3.875,9.164,6.363c3.733,1.472,6.334,2.857,7.806,4.158
			c0.848,0.962,1.442,1.923,1.782,2.884c0.395,1.188,0.594,2.291,0.594,3.309c0,2.942-0.905,5.29-2.715,7.043
			c-1.302,1.414-2.8,2.348-4.497,2.8c-1.867,0.734-3.847,1.103-5.939,1.103c-3.678,0-6.93-0.764-9.757-2.29
			C3.329,49.726,2,48.142,2,46.388c0-0.679,0.226-1.3,0.679-1.866c0.452-0.564,1.019-0.849,1.697-0.849s2.149,0.764,4.412,2.291
			c2.319,1.472,4.694,2.206,7.127,2.206c2.092,0,3.789-0.48,5.091-1.442c1.357-1.019,2.036-2.206,2.036-3.563
			c0-1.979-2.008-3.874-6.024-5.686c-6.053-2.77-9.502-4.496-10.351-5.175c-2.15-1.64-3.224-3.818-3.224-6.533v-1.103
			c0.056-0.113,0.141-0.282,0.255-0.509c0.056-0.113,0.084-0.198,0.084-0.255c0.622-2.488,2.092-4.412,4.412-5.77
			c2.319-1.47,4.892-2.206,7.721-2.206c2.828,0,5.543,0.651,8.146,1.951c2.771,1.188,4.157,2.688,4.157,4.497
			C28.217,23.113,27.963,23.735,27.454,24.244z"/>
		<path stroke="#000000" stroke-width="4" stroke-miterlimit="10" d="M74.542,50.292c-0.793,2.093-1.98,3.139-3.563,3.139
			c-0.793,0-1.5-0.254-2.121-0.764c-0.566-0.734-1.018-1.526-1.357-2.375l-7.806-24.775l-7.975,24.775
			c-0.679,2.093-1.839,3.139-3.479,3.139c-0.848,0-1.527-0.254-2.036-0.764c-0.509-0.451-0.99-1.243-1.442-2.375L34.75,20.935
			c0-0.056-0.057-0.226-0.169-0.509c-0.17-0.452-0.284-0.764-0.339-0.933c-0.114-0.565-0.17-0.989-0.17-1.273
			c0-0.734,0.198-1.272,0.594-1.612c0.226-0.452,0.849-0.679,1.867-0.679c0.056,0,0.17-0.028,0.339-0.085h0.254
			c0.565,0,1.103,0.169,1.612,0.509c0.565,0.34,1.131,1.245,1.697,2.715l7.806,25.114l7.806-24.181
			c0.452-1.527,0.933-2.601,1.442-3.224c0.395-0.564,1.103-0.848,2.121-0.848c1.018,0,1.752,0.284,2.206,0.848
			c0.283,0.339,0.707,1.302,1.273,2.885c0,0.057,0.028,0.17,0.085,0.339l7.721,24.096l7.891-25.029
			c0.509-1.301,0.989-2.092,1.442-2.375c0.622-0.509,1.244-0.764,1.867-0.764c0.339,0,0.622,0.057,0.848,0.169
			c0.339,0.057,0.594,0.142,0.764,0.254c0.904,0.396,1.357,1.132,1.357,2.206c0,0.17-0.057,0.539-0.169,1.103
			c0,0.396-0.085,0.821-0.254,1.273L74.542,50.292z"/>
		<path stroke="#000000" stroke-width="4" stroke-miterlimit="10" d="M93.971,53.43c-1.018,0-1.754-0.312-2.206-0.933
			c-0.566-0.396-0.848-1.159-0.848-2.291V19.153c0-2.149,1.018-3.224,3.054-3.224c0.904,0,1.64,0.284,2.206,0.848
			c0.509,0.509,0.764,1.302,0.764,2.376v31.053C96.941,52.357,95.951,53.43,93.971,53.43z"/>
		<path stroke="#000000" stroke-width="4" stroke-miterlimit="10" d="M149.798,53.43c-1.075,0-1.812-0.312-2.206-0.933
			c-0.566-0.396-0.849-1.159-0.849-2.291V29.589c0-2.658-0.708-4.722-2.121-6.193c-1.302-1.47-3.224-2.206-5.77-2.206
			c-2.433,0-4.299,0.821-5.6,2.46c-1.472,1.641-2.206,3.621-2.206,5.939v20.618c0,2.15-1.018,3.224-3.054,3.224
			c-1.018,0-1.726-0.312-2.121-0.933c-0.566-0.396-0.849-1.159-0.849-2.291V29.589c0-2.601-0.679-4.666-2.036-6.193
			c-1.415-1.47-3.366-2.206-5.854-2.206c-2.375,0-4.271,0.793-5.685,2.375c-1.415,1.697-2.121,3.706-2.121,6.024v20.618
			c0,2.15-0.99,3.224-2.97,3.224c-1.018,0-1.754-0.312-2.206-0.933c-0.566-0.396-0.848-1.159-0.848-2.291V19.153
			c0-2.149,1.018-3.224,3.054-3.224c1.074,0,1.837,0.284,2.291,0.848c0.452,0.509,0.679,1.641,0.679,3.394v0.169
			c1.018-1.074,2.036-2.036,3.054-2.885c1.867-1.018,3.931-1.527,6.194-1.527c1.922,0,3.733,0.424,5.43,1.272
			c1.979,1.132,3.591,2.772,4.836,4.921c1.47-2.149,3.025-3.676,4.667-4.582c1.979-1.074,4.157-1.612,6.533-1.612
			c3.336,0,6.164,0.99,8.484,2.969c2.828,2.603,4.242,6.251,4.242,10.945v20.363C152.768,52.357,151.778,53.43,149.798,53.43z"/>
		<path stroke="#000000" stroke-width="4" stroke-miterlimit="10" d="M186.79,62.933c-2.941,2.885-6.957,4.327-12.048,4.327
			c-3.338,0-6.505-0.708-9.503-2.121c-3.054-1.527-4.581-3.055-4.581-4.582c0-0.623,0.197-1.272,0.594-1.951
			c0.452-0.565,1.074-0.849,1.866-0.849s2.319,0.734,4.582,2.206c2.376,1.357,4.864,2.036,7.467,2.036
			c3.449,0,6.052-1.103,7.806-3.309c1.47-1.924,2.206-4.384,2.206-7.382V48.17c-1.133,1.641-2.461,2.941-3.988,3.902
			c-1.811,0.905-3.62,1.357-5.43,1.357c-4.979,0-8.966-1.922-11.964-5.77c-2.771-3.619-4.157-7.945-4.157-12.981
			c0-5.146,1.386-9.53,4.157-13.151c3.055-3.733,7.043-5.6,11.964-5.6c1.696,0,3.449,0.453,5.26,1.357
			c1.81,1.075,3.168,2.15,4.073,3.224l0.085-1.697c0-1.019,0.31-1.725,0.933-2.121c0.679-0.509,1.471-0.764,2.376-0.764
			c0.791,0,1.386,0.254,1.781,0.764c0.68,0.396,1.019,1.103,1.019,2.121v31.647C191.287,55.777,189.788,59.934,186.79,62.933z
			 M183.651,25.602c-1.867-2.94-4.497-4.412-7.891-4.412c-3.395,0-6.024,1.472-7.891,4.412c-1.472,2.433-2.206,5.459-2.206,9.078
			c0,3.791,0.734,6.817,2.206,9.079c1.752,2.941,4.383,4.412,7.891,4.412c3.337,0,5.938-1.471,7.806-4.412
			c1.47-2.376,2.206-5.4,2.206-9.079C185.772,30.947,185.064,27.921,183.651,25.602z"/>
		<path stroke="#000000" stroke-width="4" stroke-miterlimit="10" d="M222.338,50.122c-2.659,2.206-5.996,3.309-10.012,3.309
			c-4.017,0-7.382-1.073-10.097-3.224c-2.999-2.658-4.497-6.448-4.497-11.369V19.153c0-2.149,1.019-3.224,3.055-3.224
			c0.904,0,1.64,0.284,2.206,0.848c0.509,0.509,0.764,1.302,0.764,2.376v19.684c0,6.223,2.855,9.333,8.569,9.333
			c5.6,0,8.399-3.11,8.399-9.333V19.153c0-2.149,0.989-3.224,2.97-3.224c0.904,0,1.697,0.284,2.376,0.848
			c0.509,0.509,0.764,1.302,0.764,2.376v19.684C226.835,43.815,225.335,47.577,222.338,50.122z"/>
		<path stroke="#000000" stroke-width="4" stroke-miterlimit="10" d="M249.999,21.444c-0.736,0.566-1.669,0.849-2.8,0.849
			c-2.603,0.339-4.554,1.245-5.854,2.715c-1.472,1.754-2.206,4.327-2.206,7.721v17.478c0,2.15-0.99,3.224-2.97,3.224
			c-1.018,0-1.754-0.312-2.206-0.933c-0.565-0.396-0.849-1.159-0.849-2.291V19.153c0-2.149,1.019-3.224,3.055-3.224
			c0.904,0,1.64,0.284,2.206,0.848c0.509,0.509,0.764,1.302,0.764,2.376v3.139c1.243-2.092,2.206-3.479,2.885-4.158
			c1.413-1.47,2.855-2.206,4.327-2.206c1.019,0,2.064,0.312,3.14,0.933c0.961,0.566,1.442,1.272,1.442,2.121
			C250.932,19.946,250.621,20.765,249.999,21.444z"/>
	</g>
	<circle fill="#9BC43C" cx="93.929" cy="5.167" r="5.167"/>
</g>
</svg>
